# 3ds Max Wavefront OBJ Exporter v0.99 - (c)2007 guruware
# File Created: 12.12.2022 23:45:57

mtllib alaizq.mtl

#
# object Linux_Penguin__Torso_
#

v  -7.1984 17.3890 -3.2207
v  -6.4889 17.0330 -3.1183
v  -6.6114 17.0257 -1.5530
v  -7.3291 17.3763 -1.5426
v  -6.9461 17.5248 -4.4612
v  -6.2376 17.2094 -4.2754
v  -6.7119 17.8817 1.5660
v  -5.9737 17.7090 1.3467
v  -5.7309 18.3506 1.1228
v  -6.5110 18.3667 1.3260
v  -6.9461 17.5248 1.3322
v  -6.2376 17.2094 1.1285
v  -6.3584 18.8865 -4.7315
v  -5.5425 18.9527 -4.5275
v  -5.7309 18.3506 -4.5606
v  -6.5110 18.3667 -4.7670
v  -6.3162 19.2843 -4.3645
v  -5.4722 19.3865 -4.1852
v  -5.5425 18.9527 0.9128
v  -5.4722 19.3865 0.4345
v  -6.3162 19.2843 0.5882
v  -6.3584 18.8865 1.1009
v  -8.3355 18.3636 1.2671
v  -8.2007 18.8371 1.0463
v  -8.1691 19.2072 0.5434
v  -10.4286 19.1727 0.3882
v  -10.4590 18.8154 0.8577
v  -10.5892 18.3598 1.0634
v  -8.9725 17.5264 -3.1926
v  -8.7300 17.6449 -4.4094
v  -9.1005 17.5126 -1.5466
v  -11.3280 17.5503 -1.5542
v  -11.2043 17.5636 -3.0896
v  -10.9702 17.6763 -4.2259
v  -8.3355 18.3636 -4.7093
v  -6.7119 17.8817 -4.8268
v  -8.5148 17.9451 -4.7680
v  -10.7624 17.9609 -4.5608
v  -10.5892 18.3598 -4.5061
v  -8.4055 19.3039 -1.9094
v  -6.5543 19.3925 -1.9125
v  -6.4462 19.4029 -3.3103
v  -8.2997 19.3153 -3.2805
v  -8.1691 19.2072 -4.3146
v  -10.4286 19.1727 -4.1390
v  -10.5547 19.2771 -3.1777
v  -10.6569 19.2661 -1.9015
v  -5.9737 17.7090 -4.6164
v  -7.1984 17.3890 0.1355
v  -6.4889 17.0330 0.0123
v  -5.6851 19.5170 -1.8980
v  -6.4462 19.4029 -0.5146
v  -5.5838 19.5230 -0.5941
v  -5.5838 19.5230 -3.2019
v  -12.6216 19.3053 -0.7230
v  -12.4923 19.1983 0.2109
v  -10.5547 19.2771 -0.6222
v  -12.7263 19.2940 -1.9012
v  -14.8230 19.2835 -1.8893
v  -14.7233 19.2943 -0.8664
v  -14.6004 19.1924 -0.0527
v  -13.4142 17.6053 -1.5544
v  -11.2043 17.5636 -0.0218
v  -13.2874 17.6190 -0.1535
v  -10.9702 17.6763 1.0698
v  -13.0475 17.7257 0.8408
v  -15.1286 17.8145 0.4959
v  -15.3569 17.7162 -0.3582
v  -15.4775 17.7032 -1.5660
v  -12.4923 19.1983 -3.9415
v  -10.4590 18.8154 -4.4737
v  -12.5235 18.8320 -4.2460
v  -12.6570 18.3738 -4.2758
v  -14.7570 18.4113 -3.9311
v  -14.6301 18.8439 -3.9053
v  -14.6004 19.1924 -3.6439
v  -10.7624 17.9609 1.2829
v  -12.8345 17.9912 1.0338
v  -12.6570 18.3738 0.8326
v  -14.7570 18.4113 0.4869
v  -14.9260 18.0572 0.6610
v  -8.5148 17.9451 1.5025
v  -8.7300 17.6449 1.2731
v  -8.2007 18.8371 -4.6745
v  -8.9725 17.5264 0.0993
v  -8.2997 19.3153 -0.5383
v  -17.0146 18.8081 -0.1838
v  -17.1078 18.4779 -0.0610
v  -14.6301 18.8439 0.3237
v  -16.9928 19.0638 -0.4666
v  -18.4226 18.9237 -0.8169
v  -18.9259 18.7612 -0.7560
v  -18.9843 18.5366 -0.6746
v  -17.3805 17.9638 -3.2148
v  -15.1286 17.8145 -3.7048
v  -15.3569 17.7162 -2.7918
v  -17.5480 17.8791 -2.5291
v  -17.6365 17.8695 -1.6077
v  -19.2728 18.0818 -1.6576
v  -19.2187 18.0877 -2.3001
v  -18.6820 18.1099 -2.7828
v  -17.2317 18.1800 -3.4172
v  -17.1078 18.4779 -3.3846
v  -14.9260 18.0572 -3.9744
v  -19.0620 18.2912 -2.7893
v  -18.9843 18.5366 -2.7725
v  -17.0830 19.1385 -2.6025
v  -17.1562 19.1306 -1.8462
v  -14.7233 19.2943 -2.8935
v  -16.9928 19.0638 -3.1682
v  -18.4226 18.9237 -2.7633
v  -18.9598 18.9249 -2.3371
v  -19.0054 18.9200 -1.7942
v  -12.6216 19.3053 -3.0670
v  -12.8345 17.9912 -4.3259
v  -13.0475 17.7257 -4.0164
v  -13.2874 17.6190 -2.9673
v  -12.5235 18.8320 0.6438
v  -19.6128 18.7402 -2.2404
v  -19.6501 18.7362 -1.7553
v  -18.9259 18.7612 -2.7642
v  -19.6618 18.5506 -2.2305
v  -19.7008 18.5464 -1.7237
v  -19.7680 18.3179 -1.6938
v  -19.7269 18.3223 -2.2255
v  -18.9598 18.9249 -1.2482
v  -19.6128 18.7402 -1.2702
v  -19.6618 18.5506 -1.2169
v  -19.7269 18.3223 -1.1620
v  -19.2187 18.0877 -1.0182
v  -18.6820 18.1099 -0.5393
v  -19.0620 18.2912 -0.5882
v  -17.2317 18.1800 0.0699
v  -17.3805 17.9638 -0.0547
v  -17.0146 18.8081 -3.3653
v  -17.5480 17.8791 -0.6984
v  -17.0830 19.1385 -1.0775
# 137 vertices

vn -0.2612 -0.9602 -0.0986
vn -0.4436 -0.8867 -0.1302
vn -0.4544 -0.8908 -0.0004
vn -0.2694 -0.9631 -0.0000
vn -0.1690 -0.8498 -0.4994
vn -0.2232 -0.8326 -0.5070
vn 0.0709 -0.0493 0.9963
vn 0.2597 -0.1061 0.9598
vn 0.2488 0.2743 0.9289
vn 0.1206 0.3833 0.9157
vn -0.1419 -0.7874 0.5998
vn -0.1800 -0.7941 0.5804
vn 0.1016 0.3565 -0.9287
vn 0.1753 0.3989 -0.9000
vn 0.2547 -0.0176 -0.9669
vn 0.1193 0.0491 -0.9916
vn 0.0032 0.8716 -0.4902
vn 0.0017 0.8927 -0.4507
vn 0.1194 0.5966 0.7936
vn -0.0356 0.9237 0.3814
vn -0.0129 0.9152 0.4028
vn 0.0839 0.5771 0.8124
vn -0.0476 0.4706 0.8811
vn -0.0442 0.6357 0.7706
vn -0.0291 0.9313 0.3631
vn -0.0191 0.9286 0.3706
vn -0.0633 0.6309 0.7733
vn -0.0781 0.4701 0.8791
vn -0.0635 -0.9963 -0.0597
vn -0.0744 -0.9071 -0.4141
vn -0.0613 -0.9982 -0.0001
vn -0.0379 -0.9993 -0.0001
vn -0.0410 -0.9974 -0.0580
vn -0.0700 -0.9092 -0.4105
vn -0.0565 0.1259 -0.9904
vn 0.0303 -0.2899 -0.9566
vn -0.0736 -0.3260 -0.9425
vn -0.1040 -0.3180 -0.9424
vn -0.0962 0.1393 -0.9856
vn -0.0155 0.9999 -0.0000
vn -0.0769 0.9971 -0.0000
vn -0.0732 0.9952 -0.0640
vn -0.0170 0.9985 -0.0523
vn -0.0345 0.8963 -0.4419
vn -0.0269 0.8937 -0.4478
vn 0.0115 0.9986 -0.0502
vn 0.0150 0.9999 0.0001
vn 0.1907 -0.3042 -0.9333
vn -0.2588 -0.9605 0.1021
vn -0.4401 -0.8881 0.1322
vn -0.1246 0.9922 -0.0000
vn -0.0710 0.9954 0.0636
vn -0.1152 0.9906 0.0747
vn -0.1071 0.9918 -0.0690
vn 0.0148 0.9985 0.0527
vn -0.0250 0.9167 0.3989
vn 0.0122 0.9988 0.0477
vn 0.0196 0.9998 0.0002
vn -0.0211 0.9998 0.0001
vn -0.0253 0.9977 0.0625
vn -0.0700 0.9048 0.4199
vn -0.0536 -0.9986 -0.0002
vn -0.0417 -0.9972 0.0603
vn -0.0593 -0.9960 0.0673
vn -0.0833 -0.8504 0.5196
vn -0.1204 -0.8301 0.5445
vn -0.1834 -0.7908 0.5840
vn -0.0870 -0.9933 0.0772
vn -0.0789 -0.9969 0.0001
vn -0.0427 0.8772 -0.4783
vn -0.0804 0.4108 -0.9082
vn -0.1133 0.3890 -0.9142
vn -0.1297 0.1473 -0.9806
vn -0.1849 0.1622 -0.9693
vn -0.1672 0.3740 -0.9122
vn -0.0925 0.8596 -0.5026
vn -0.1049 -0.0262 0.9941
vn -0.1411 -0.0071 0.9900
vn -0.1090 0.4587 0.8819
vn -0.1577 0.4479 0.8801
vn -0.2036 0.0346 0.9784
vn -0.0712 -0.0377 0.9968
vn -0.0833 -0.8493 0.5213
vn -0.0535 0.4135 -0.9089
vn -0.0638 -0.9961 0.0617
vn -0.0170 0.9986 0.0501
vn -0.2049 0.5815 0.7873
vn -0.2226 0.4367 0.8716
vn -0.1349 0.5771 0.8055
vn -0.1378 0.8999 0.4138
vn -0.1639 0.9146 0.3697
vn -0.3474 0.6831 0.6425
vn -0.4165 0.4184 0.8072
vn -0.2277 -0.8277 -0.5128
vn -0.1514 -0.8748 -0.4602
vn -0.0858 -0.9937 -0.0723
vn -0.1316 -0.9872 -0.0903
vn -0.1196 -0.9928 0.0003
vn -0.3046 -0.9524 0.0009
vn -0.3378 -0.9093 -0.2432
vn -0.2749 -0.8431 -0.4623
vn -0.2836 -0.1855 -0.9408
vn -0.2566 0.1724 -0.9510
vn -0.2036 -0.2542 -0.9455
vn -0.5221 -0.3164 -0.7920
vn -0.4626 0.1838 -0.8673
vn -0.0853 0.9936 -0.0745
vn -0.0751 0.9972 -0.0000
vn -0.0282 0.9973 -0.0680
vn -0.1609 0.8562 -0.4910
vn -0.1946 0.8976 -0.3954
vn -0.2178 0.9592 -0.1800
vn -0.1830 0.9831 -0.0002
vn 0.0147 0.9983 -0.0561
vn -0.1419 -0.2971 -0.9442
vn -0.1002 -0.8984 -0.4278
vn -0.0573 -0.9964 -0.0626
vn -0.0859 0.6028 0.7933
vn -0.6862 0.6168 -0.3856
vn -0.7150 0.6991 -0.0041
vn -0.4024 0.5546 -0.7284
vn -0.8555 0.2341 -0.4619
vn -0.9584 0.2856 0.0006
vn -0.9231 -0.3845 0.0027
vn -0.8558 -0.3427 -0.3876
vn -0.2000 0.9679 0.1523
vn -0.6618 0.6797 0.3164
vn -0.8261 0.3584 0.4347
vn -0.8636 -0.2919 0.4111
vn -0.3681 -0.8868 0.2795
vn -0.3218 -0.7438 0.5858
vn -0.5368 -0.1813 0.8240
vn -0.2775 0.0756 0.9577
vn -0.2743 -0.7301 0.6259
vn -0.2383 0.3823 -0.8928
vn -0.1324 -0.9870 0.0921
vn -0.0812 0.9943 0.0683
# 137 vertex normals

vt 0.2949 0.7171 0.0000
vt 0.3047 0.7073 0.0000
vt 0.3257 0.7284 0.0000
vt 0.3154 0.7389 0.0000
vt 0.2791 0.7030 0.0000
vt 0.2881 0.6915 0.0000
vt 0.3610 0.7919 0.0000
vt 0.3790 0.7865 0.0000
vt 0.3847 0.8037 0.0000
vt 0.3667 0.8027 0.0000
vt 0.3548 0.7838 0.0000
vt 0.3721 0.7707 0.0000
vt 0.3403 0.9126 0.0000
vt 0.3504 0.9160 0.0000
vt 0.3448 0.9217 0.0000
vt 0.3360 0.9176 0.0000
vt 0.3439 0.9067 0.0000
vt 0.3553 0.9101 0.0000
vt 0.3885 0.8190 0.0000
vt 0.3886 0.8346 0.0000
vt 0.3705 0.8280 0.0000
vt 0.3702 0.8146 0.0000
vt 0.3317 0.8073 0.0000
vt 0.3350 0.8159 0.0000
vt 0.3358 0.8265 0.0000
vt 0.3009 0.8292 0.0000
vt 0.2999 0.8210 0.0000
vt 0.2971 0.8143 0.0000
vt 0.2772 0.7386 0.0000
vt 0.2664 0.7248 0.0000
vt 0.2927 0.7582 0.0000
vt 0.2673 0.7771 0.0000
vt 0.2560 0.7606 0.0000
vt 0.2482 0.7480 0.0000
vt 0.2594 0.7144 0.0000
vt 0.2680 0.6944 0.0000
vt 0.2731 0.6981 0.0000
vt 0.2629 0.7190 0.0000
vt 0.2459 0.7423 0.0000
vt 0.2431 0.7376 0.0000
vt 0.3270 0.8646 0.0000
vt 0.3548 0.8717 0.0000
vt 0.3485 0.8925 0.0000
vt 0.3238 0.8840 0.0000
vt 0.3216 0.8979 0.0000
vt 0.2939 0.8890 0.0000
vt 0.2948 0.8766 0.0000
vt 0.2960 0.8601 0.0000
vt 0.2768 0.6876 0.0000
vt 0.2679 0.6861 0.0000
vt 0.3382 0.7627 0.0000
vt 0.3498 0.7504 0.0000
vt 0.3685 0.8768 0.0000
vt 0.3640 0.8489 0.0000
vt 0.3793 0.8553 0.0000
vt 0.3609 0.8965 0.0000
vt 0.2727 0.8436 0.0000
vt 0.2744 0.8325 0.0000
vt 0.2989 0.8432 0.0000
vt 0.2703 0.8574 0.0000
vt 0.2470 0.8545 0.0000
vt 0.2494 0.8439 0.0000
vt 0.2512 0.8355 0.0000
vt 0.2466 0.7920 0.0000
vt 0.2798 0.7931 0.0000
vt 0.2568 0.8044 0.0000
vt 0.2892 0.8049 0.0000
vt 0.2646 0.8131 0.0000
vt 0.2437 0.8203 0.0000
vt 0.2373 0.8143 0.0000
vt 0.2289 0.8054 0.0000
vt 0.2695 0.8819 0.0000
vt 0.2921 0.8949 0.0000
vt 0.2678 0.8874 0.0000
vt 0.2888 0.8998 0.0000
vt 0.2646 0.8922 0.0000
vt 0.2408 0.8829 0.0000
vt 0.2442 0.8788 0.0000
vt 0.2460 0.8741 0.0000
vt 0.2936 0.8085 0.0000
vt 0.2682 0.8158 0.0000
vt 0.2711 0.8203 0.0000
vt 0.2488 0.8259 0.0000
vt 0.2466 0.8222 0.0000
vt 0.3272 0.7997 0.0000
vt 0.3219 0.7947 0.0000
vt 0.3191 0.9040 0.0000
vt 0.3154 0.9090 0.0000
vt 0.3096 0.7788 0.0000
vt 0.3322 0.8441 0.0000
vt 0.2283 0.8341 0.0000
vt 0.2273 0.8311 0.0000
vt 0.2507 0.8303 0.0000
vt 0.2283 0.8374 0.0000
vt 0.2163 0.8372 0.0000
vt 0.2130 0.8356 0.0000
vt 0.2126 0.8339 0.0000
vt 0.2036 0.8070 0.0000
vt 0.2162 0.7861 0.0000
vt 0.2214 0.7950 0.0000
vt 0.2079 0.8124 0.0000
vt 0.2136 0.8186 0.0000
vt 0.2051 0.8289 0.0000
vt 0.2009 0.8260 0.0000
vt 0.1997 0.8197 0.0000
vt 0.2017 0.8042 0.0000
vt 0.1989 0.8020 0.0000
vt 0.2119 0.7780 0.0000
vt 0.2145 0.7817 0.0000
vt 0.1968 0.8228 0.0000
vt 0.1942 0.8223 0.0000
vt 0.2225 0.8570 0.0000
vt 0.2239 0.8495 0.0000
vt 0.2463 0.8655 0.0000
vt 0.2215 0.8630 0.0000
vt 0.2092 0.8533 0.0000
vt 0.2061 0.8472 0.0000
vt 0.2083 0.8426 0.0000
vt 0.2697 0.8713 0.0000
vt 0.2295 0.7620 0.0000
vt 0.2270 0.7576 0.0000
vt 0.2313 0.7672 0.0000
vt 0.2375 0.7783 0.0000
vt 0.2736 0.8258 0.0000
vt 0.2009 0.8427 0.0000
vt 0.2034 0.8381 0.0000
vt 0.2037 0.8514 0.0000
vt 0.2010 0.8523 0.0000
vt 0.1985 0.8420 0.0000
vt 0.2020 0.8359 0.0000
vt 0.2031 0.8332 0.0000
vt 0.1967 0.8319 0.0000
vt 0.1991 0.8306 0.0000
vt 0.2113 0.8390 0.0000
vt 0.2072 0.8362 0.0000
vt 0.2071 0.8348 0.0000
vt 0.2071 0.8331 0.0000
vt 0.2094 0.8306 0.0000
vt 0.2142 0.8304 0.0000
vt 0.2122 0.8322 0.0000
vt 0.2260 0.8285 0.0000
vt 0.2241 0.8270 0.0000
vt 0.2196 0.8661 0.0000
vt 0.2166 0.8687 0.0000
vt 0.2196 0.8235 0.0000
vt 0.2264 0.8427 0.0000
# 146 texture coords

o Linux_Penguin__Torso_
g Linux_Penguin__Torso_
usemtl Linux_Penguin
s 1
f 1/1/1 2/2/2 3/3/3 
f 3/3/3 4/4/4 1/1/1 
f 1/1/1 5/5/5 6/6/6 
f 6/6/6 2/2/2 1/1/1 
f 7/7/7 8/8/8 9/9/9 
f 9/9/9 10/10/10 7/7/7 
f 7/7/7 11/11/11 12/12/12 
f 12/12/12 8/8/8 7/7/7 
f 13/13/13 14/14/14 15/15/15 
f 15/15/15 16/16/16 13/13/13 
f 17/17/17 18/18/18 14/14/14 
f 14/14/14 13/13/13 17/17/17 
f 19/19/19 20/20/20 21/21/21 
f 21/21/21 22/22/22 19/19/19 
f 9/9/9 19/19/19 22/22/22 
f 22/22/22 10/10/10 9/9/9 
f 23/23/23 10/10/10 22/22/22 
f 22/22/22 24/24/24 23/23/23 
f 24/24/24 22/22/22 21/21/21 
f 21/21/21 25/25/25 24/24/24 
f 24/24/24 25/25/25 26/26/26 
f 26/26/26 27/27/27 24/24/24 
f 27/27/27 28/28/28 23/23/23 
f 23/23/23 24/24/24 27/27/27 
f 1/1/1 29/29/29 30/30/30 
f 30/30/30 5/5/5 1/1/1 
f 29/29/29 1/1/1 4/4/4 
f 4/4/4 31/31/31 29/29/29 
f 29/29/29 31/31/31 32/32/32 
f 32/32/32 33/33/33 29/29/29 
f 34/34/34 30/30/30 29/29/29 
f 29/29/29 33/33/33 34/34/34 
f 35/35/35 16/36/16 36/37/36 
f 36/37/36 37/38/37 35/35/35 
f 36/37/36 5/5/5 30/30/30 
f 30/30/30 37/38/37 36/37/36 
f 30/30/30 34/34/34 38/39/38 
f 38/39/38 37/38/37 30/30/30 
f 37/38/37 38/39/38 39/40/39 
f 39/40/39 35/35/35 37/38/37 
f 40/41/40 41/42/41 42/43/42 
f 42/43/42 43/44/43 40/41/40 
f 43/44/43 42/43/42 17/17/17 
f 17/17/17 44/45/44 43/44/43 
f 44/45/44 45/46/45 46/47/46 
f 46/47/46 43/44/43 44/45/44 
f 46/47/46 47/48/47 40/41/40 
f 40/41/40 43/44/43 46/47/46 
f 6/6/6 5/5/5 36/37/36 
f 36/37/36 48/49/48 6/6/6 
f 15/50/15 48/49/48 36/37/36 
f 36/37/36 16/36/16 15/50/15 
f 12/12/12 11/11/11 49/51/49 
f 49/51/49 50/52/50 12/12/12 
f 49/51/49 4/4/4 3/3/3 
f 3/3/3 50/52/50 49/51/49 
f 51/53/51 41/42/41 52/54/52 
f 52/54/52 53/55/53 51/53/51 
f 20/20/20 53/55/53 52/54/52 
f 52/54/52 21/21/21 20/20/20 
f 54/56/54 18/18/18 17/17/17 
f 17/17/17 42/43/42 54/56/54 
f 42/43/42 41/42/41 51/53/51 
f 51/53/51 54/56/54 42/43/42 
f 55/57/55 56/58/56 26/26/26 
f 26/26/26 57/59/57 55/57/55 
f 57/59/57 47/48/47 58/60/58 
f 58/60/58 55/57/55 57/59/57 
f 55/57/55 58/60/58 59/61/59 
f 59/61/59 60/62/60 55/57/55 
f 55/57/55 60/62/60 61/63/61 
f 61/63/61 56/58/56 55/57/55 
f 62/64/62 32/32/32 63/65/63 
f 63/65/63 64/66/64 62/64/62 
f 63/65/63 65/67/65 66/68/66 
f 66/68/66 64/66/64 63/65/63 
f 64/66/64 66/68/66 67/69/67 
f 67/69/67 68/70/68 64/66/64 
f 64/66/64 68/70/68 69/71/69 
f 69/71/69 62/64/62 64/66/64 
f 70/72/70 45/46/45 71/73/71 
f 71/73/71 72/74/72 70/72/70 
f 72/74/72 71/73/71 39/75/39 
f 39/75/39 73/76/73 72/74/72 
f 73/76/73 74/77/74 75/78/75 
f 75/78/75 72/74/72 73/76/73 
f 75/78/75 76/79/76 70/72/70 
f 70/72/70 72/74/72 75/78/75 
f 66/68/66 65/67/65 77/80/77 
f 77/80/77 78/81/78 66/68/66 
f 77/80/77 28/28/28 79/82/79 
f 79/82/79 78/81/78 77/80/77 
f 78/81/78 79/82/79 80/83/80 
f 80/83/80 81/84/81 78/81/78 
f 78/81/78 81/84/81 67/69/67 
f 67/69/67 66/68/66 78/81/78 
f 7/7/7 82/85/82 83/86/83 
f 83/86/83 11/11/11 7/7/7 
f 82/85/82 7/7/7 10/10/10 
f 10/10/10 23/23/23 82/85/82 
f 23/23/23 28/28/28 77/80/77 
f 77/80/77 82/85/82 23/23/23 
f 77/80/77 65/67/65 83/86/83 
f 83/86/83 82/85/82 77/80/77 
f 84/87/84 44/45/44 17/17/17 
f 17/17/17 13/13/13 84/87/84 
f 13/13/13 16/16/16 35/88/35 
f 35/88/35 84/87/84 13/13/13 
f 84/87/84 35/88/35 39/75/39 
f 39/75/39 71/73/71 84/87/84 
f 84/87/84 71/73/71 45/46/45 
f 45/46/45 44/45/44 84/87/84 
f 31/31/31 4/4/4 49/51/49 
f 49/51/49 85/89/85 31/31/31 
f 49/51/49 11/11/11 83/86/83 
f 83/86/83 85/89/85 49/51/49 
f 83/86/83 65/67/65 63/65/63 
f 63/65/63 85/89/85 83/86/83 
f 85/89/85 63/65/63 32/32/32 
f 32/32/32 31/31/31 85/89/85 
f 86/90/86 25/25/25 21/21/21 
f 21/21/21 52/54/52 86/90/86 
f 40/41/40 86/90/86 52/54/52 
f 52/54/52 41/42/41 40/41/40 
f 40/41/40 47/48/47 57/59/57 
f 57/59/57 86/90/86 40/41/40 
f 86/90/86 57/59/57 26/26/26 
f 26/26/26 25/25/25 86/90/86 
f 87/91/87 88/92/88 80/83/80 
f 80/83/80 89/93/89 87/91/87 
f 87/91/87 89/93/89 61/63/61 
f 61/63/61 90/94/90 87/91/87 
f 87/91/87 90/94/90 91/95/91 
f 91/95/91 92/96/92 87/91/87 
f 87/91/87 92/96/92 93/97/93 
f 93/97/93 88/92/88 87/91/87 
f 94/98/94 95/99/95 96/100/96 
f 96/100/96 97/101/97 94/98/94 
f 97/101/97 96/100/96 69/71/69 
f 69/71/69 98/102/98 97/101/97 
f 98/102/98 99/103/99 100/104/100 
f 100/104/100 97/101/97 98/102/98 
f 97/101/97 100/104/100 101/105/101 
f 101/105/101 94/98/94 97/101/97 
f 102/106/102 103/107/103 74/108/74 
f 74/108/74 104/109/104 102/106/102 
f 104/109/104 95/99/95 94/98/94 
f 94/98/94 102/106/102 104/109/104 
f 94/98/94 101/105/101 105/110/105 
f 105/110/105 102/106/102 94/98/94 
f 105/110/105 106/111/106 103/107/103 
f 103/107/103 102/106/102 105/110/105 
f 107/112/107 108/113/108 59/61/59 
f 59/61/59 109/114/109 107/112/107 
f 109/114/109 76/79/76 110/115/110 
f 110/115/110 107/112/107 109/114/109 
f 107/112/107 110/115/110 111/116/111 
f 111/116/111 112/117/112 107/112/107 
f 107/112/107 112/117/112 113/118/113 
f 113/118/113 108/113/108 107/112/107 
f 47/48/47 46/47/46 114/119/114 
f 114/119/114 58/60/58 47/48/47 
f 45/46/45 70/72/70 114/119/114 
f 114/119/114 46/47/46 45/46/45 
f 70/72/70 76/79/76 109/114/109 
f 109/114/109 114/119/114 70/72/70 
f 114/119/114 109/114/109 59/61/59 
f 59/61/59 58/60/58 114/119/114 
f 115/120/115 73/121/73 39/40/39 
f 39/40/39 38/39/38 115/120/115 
f 38/39/38 34/34/34 116/122/116 
f 116/122/116 115/120/115 38/39/38 
f 115/120/115 116/122/116 95/99/95 
f 95/99/95 104/109/104 115/120/115 
f 104/109/104 74/108/74 73/121/73 
f 73/121/73 115/120/115 104/109/104 
f 116/122/116 34/34/34 33/33/33 
f 33/33/33 117/123/117 116/122/116 
f 117/123/117 33/33/33 32/32/32 
f 32/32/32 62/64/62 117/123/117 
f 62/64/62 69/71/69 96/100/96 
f 96/100/96 117/123/117 62/64/62 
f 96/100/96 95/99/95 116/122/116 
f 116/122/116 117/123/117 96/100/96 
f 118/124/118 79/82/79 28/28/28 
f 28/28/28 27/27/27 118/124/118 
f 118/124/118 27/27/27 26/26/26 
f 26/26/26 56/58/56 118/124/118 
f 56/58/56 61/63/61 89/93/89 
f 89/93/89 118/124/118 56/58/56 
f 118/124/118 89/93/89 80/83/80 
f 80/83/80 79/82/79 118/124/118 
f 119/125/119 120/126/120 113/118/113 
f 113/118/113 112/117/112 119/125/119 
f 119/125/119 112/117/112 111/116/111 
f 111/116/111 121/127/121 119/125/119 
f 121/127/121 106/128/106 122/129/122 
f 122/129/122 119/125/119 121/127/121 
f 122/129/122 123/130/123 120/126/120 
f 120/126/120 119/125/119 122/129/122 
f 124/131/124 123/130/123 122/132/122 
f 122/132/122 125/133/125 124/131/124 
f 125/133/125 122/132/122 106/111/106 
f 106/111/106 105/110/105 125/133/125 
f 125/133/125 105/110/105 101/105/101 
f 101/105/101 100/104/100 125/133/125 
f 125/133/125 100/104/100 99/103/99 
f 99/103/99 124/131/124 125/133/125 
f 126/134/126 113/118/113 120/126/120 
f 120/126/120 127/135/127 126/134/126 
f 120/126/120 123/130/123 128/136/128 
f 128/136/128 127/135/127 120/126/120 
f 127/135/127 128/136/128 93/97/93 
f 93/97/93 92/96/92 127/135/127 
f 127/135/127 92/96/92 91/95/91 
f 91/95/91 126/134/126 127/135/127 
f 129/137/129 128/136/128 123/130/123 
f 123/130/123 124/131/124 129/137/129 
f 129/137/129 124/131/124 99/103/99 
f 99/103/99 130/138/130 129/137/129 
f 129/137/129 130/138/130 131/139/131 
f 131/139/131 132/140/132 129/137/129 
f 132/140/132 93/97/93 128/136/128 
f 128/136/128 129/137/129 132/140/132 
f 133/141/133 134/142/134 67/69/67 
f 67/69/67 81/84/81 133/141/133 
f 133/141/133 81/84/81 80/83/80 
f 80/83/80 88/92/88 133/141/133 
f 133/141/133 88/92/88 93/97/93 
f 93/97/93 132/140/132 133/141/133 
f 133/141/133 132/140/132 131/139/131 
f 131/139/131 134/142/134 133/141/133 
f 135/143/135 110/115/110 76/79/76 
f 76/79/76 75/78/75 135/143/135 
f 75/78/75 74/77/74 103/144/103 
f 103/144/103 135/143/135 75/78/75 
f 103/144/103 106/128/106 121/127/121 
f 121/127/121 135/143/135 103/144/103 
f 121/127/121 111/116/111 110/115/110 
f 110/115/110 135/143/135 121/127/121 
f 136/145/136 98/102/98 69/71/69 
f 69/71/69 68/70/68 136/145/136 
f 136/145/136 68/70/68 67/69/67 
f 67/69/67 134/142/134 136/145/136 
f 134/142/134 131/139/131 130/138/130 
f 130/138/130 136/145/136 134/142/134 
f 130/138/130 99/103/99 98/102/98 
f 98/102/98 136/145/136 130/138/130 
f 137/146/137 90/94/90 61/63/61 
f 61/63/61 60/62/60 137/146/137 
f 60/62/60 59/61/59 108/113/108 
f 108/113/108 137/146/137 60/62/60 
f 137/146/137 108/113/108 113/118/113 
f 113/118/113 126/134/126 137/146/137 
f 137/146/137 126/134/126 91/95/91 
f 91/95/91 90/94/90 137/146/137 
# 256 faces

